%TF.GenerationSoftware,KiCad,Pcbnew,10.0.2*%
%TF.CreationDate,2026-06-03T16:23:48+02:00*%
%TF.ProjectId,test,74657374-2e6b-4696-9361-645f70636258,rev?*%
%TF.SameCoordinates,Original*%
%TF.FileFunction,Soldermask,Top*%
%TF.FilePolarity,Negative*%
%FSLAX46Y46*%
G04 Gerber Fmt 4.6, Leading zero omitted, Abs format (unit mm)*
G04 Created by KiCad (PCBNEW 10.0.2) date 2026-06-03 16:23:48*
%MOMM*%
%LPD*%
G01*
G04 APERTURE LIST*
G04 Aperture macros list*
%AMRoundRect*
0 Rectangle with rounded corners*
0 $1 Rounding radius*
0 $2 $3 $4 $5 $6 $7 $8 $9 X,Y pos of 4 corners*
0 Add a 4 corners polygon primitive as box body*
4,1,4,$2,$3,$4,$5,$6,$7,$8,$9,$2,$3,0*
0 Add four circle primitives for the rounded corners*
1,1,$1+$1,$2,$3*
1,1,$1+$1,$4,$5*
1,1,$1+$1,$6,$7*
1,1,$1+$1,$8,$9*
0 Add four rect primitives between the rounded corners*
20,1,$1+$1,$2,$3,$4,$5,0*
20,1,$1+$1,$4,$5,$6,$7,0*
20,1,$1+$1,$6,$7,$8,$9,0*
20,1,$1+$1,$8,$9,$2,$3,0*%
G04 Aperture macros list end*
%ADD10RoundRect,0.112500X0.187500X0.112500X-0.187500X0.112500X-0.187500X-0.112500X0.187500X-0.112500X0*%
%ADD11RoundRect,0.250000X-0.350000X-0.450000X0.350000X-0.450000X0.350000X0.450000X-0.350000X0.450000X0*%
%ADD12RoundRect,0.150000X-0.587500X-0.150000X0.587500X-0.150000X0.587500X0.150000X-0.587500X0.150000X0*%
%ADD13RoundRect,0.250000X-0.475000X0.337500X-0.475000X-0.337500X0.475000X-0.337500X0.475000X0.337500X0*%
%ADD14RoundRect,0.102000X-0.400000X1.000000X-0.400000X-1.000000X0.400000X-1.000000X0.400000X1.000000X0*%
%ADD15RoundRect,0.102000X0.400000X-0.600000X0.400000X0.600000X-0.400000X0.600000X-0.400000X-0.600000X0*%
%ADD16RoundRect,0.102000X-1.000000X-0.400000X1.000000X-0.400000X1.000000X0.400000X-1.000000X0.400000X0*%
%ADD17RoundRect,0.102000X-0.600000X-0.400000X0.600000X-0.400000X0.600000X0.400000X-0.600000X0.400000X0*%
%ADD18C,2.600000*%
%ADD19C,5.050000*%
%ADD20C,3.600000*%
%ADD21RoundRect,0.250000X0.337500X0.475000X-0.337500X0.475000X-0.337500X-0.475000X0.337500X-0.475000X0*%
%ADD22RoundRect,0.150000X0.512500X0.150000X-0.512500X0.150000X-0.512500X-0.150000X0.512500X-0.150000X0*%
%ADD23RoundRect,0.250000X0.350000X0.450000X-0.350000X0.450000X-0.350000X-0.450000X0.350000X-0.450000X0*%
%ADD24C,0.600000*%
%ADD25RoundRect,0.200000X0.200000X0.500000X-0.200000X0.500000X-0.200000X-0.500000X0.200000X-0.500000X0*%
%ADD26RoundRect,0.075000X0.075000X0.625000X-0.075000X0.625000X-0.075000X-0.625000X0.075000X-0.625000X0*%
%ADD27O,0.900000X1.800000*%
%ADD28O,0.900000X1.500000*%
%ADD29RoundRect,0.150000X0.625000X-0.150000X0.625000X0.150000X-0.625000X0.150000X-0.625000X-0.150000X0*%
%ADD30RoundRect,0.250000X0.650000X-0.350000X0.650000X0.350000X-0.650000X0.350000X-0.650000X-0.350000X0*%
%ADD31RoundRect,0.250000X-0.337500X-0.475000X0.337500X-0.475000X0.337500X0.475000X-0.337500X0.475000X0*%
%ADD32RoundRect,0.200000X0.200000X0.800000X-0.200000X0.800000X-0.200000X-0.800000X0.200000X-0.800000X0*%
%ADD33RoundRect,0.250000X0.475000X-0.337500X0.475000X0.337500X-0.475000X0.337500X-0.475000X-0.337500X0*%
%ADD34RoundRect,0.150000X-0.150000X0.512500X-0.150000X-0.512500X0.150000X-0.512500X0.150000X0.512500X0*%
%ADD35RoundRect,0.150000X-0.150000X-0.625000X0.150000X-0.625000X0.150000X0.625000X-0.150000X0.625000X0*%
%ADD36RoundRect,0.250000X-0.350000X-0.650000X0.350000X-0.650000X0.350000X0.650000X-0.350000X0.650000X0*%
%ADD37RoundRect,0.100000X0.100000X-0.217500X0.100000X0.217500X-0.100000X0.217500X-0.100000X-0.217500X0*%
%ADD38RoundRect,0.150000X-0.512500X-0.150000X0.512500X-0.150000X0.512500X0.150000X-0.512500X0.150000X0*%
G04 APERTURE END LIST*
D10*
%TO.C,D20*%
X203880000Y-103775000D03*
X201780000Y-103775000D03*
%TD*%
D11*
%TO.C,R4*%
X200750000Y-100000000D03*
X202750000Y-100000000D03*
%TD*%
D12*
%TO.C,Q1*%
X205375000Y-100050000D03*
X205375000Y-101950000D03*
X207250000Y-101000000D03*
%TD*%
D13*
%TO.C,C8*%
X190250000Y-77075000D03*
X190250000Y-75000000D03*
%TD*%
D14*
%TO.C,U1*%
X208522500Y-80750000D03*
D15*
X207887500Y-78450000D03*
D14*
X207252500Y-80750000D03*
D15*
X206617500Y-78450000D03*
D14*
X205982500Y-80750000D03*
D15*
X205347500Y-78450000D03*
D14*
X204712500Y-80750000D03*
D15*
X204077500Y-78450000D03*
D14*
X203442500Y-80750000D03*
D15*
X202747500Y-78450000D03*
D14*
X202172500Y-80750000D03*
D15*
X201537500Y-78450000D03*
D14*
X200902500Y-80750000D03*
D15*
X200267500Y-78450000D03*
D14*
X199632500Y-80750000D03*
D15*
X198997500Y-78450000D03*
D14*
X198362500Y-80750000D03*
X197092500Y-80750000D03*
D16*
X194492500Y-78695000D03*
D17*
X196792500Y-78060000D03*
D16*
X194492500Y-77425000D03*
D17*
X196792500Y-76790000D03*
D16*
X194492500Y-76155000D03*
D17*
X196792500Y-75520000D03*
D16*
X194492500Y-74885000D03*
D17*
X196792500Y-74250000D03*
D16*
X194492500Y-73615000D03*
D17*
X196792500Y-72980000D03*
D16*
X194492500Y-72345000D03*
D17*
X196792500Y-71710000D03*
D16*
X194492500Y-71075000D03*
D17*
X196792500Y-70440000D03*
D16*
X194492500Y-69805000D03*
D14*
X197092500Y-67750000D03*
X198362500Y-67750000D03*
X199632500Y-67750000D03*
X200902500Y-67750000D03*
X202172500Y-67750000D03*
X203442500Y-67750000D03*
X204712500Y-67750000D03*
X205982500Y-67750000D03*
X207252500Y-67750000D03*
X208522500Y-67750000D03*
%TD*%
D18*
%TO.C,SW18*%
X143000000Y-116850000D03*
D19*
X138000000Y-122000000D03*
D20*
X138000000Y-127900000D03*
X133000000Y-125800000D03*
%TD*%
D10*
%TO.C,D5*%
X186000000Y-64750000D03*
X183900000Y-64750000D03*
%TD*%
D18*
%TO.C,SW8*%
X143000000Y-82850000D03*
D19*
X138000000Y-88000000D03*
D20*
X138000000Y-93900000D03*
X133000000Y-91800000D03*
%TD*%
D10*
%TO.C,D11*%
X186150000Y-117250000D03*
X184050000Y-117250000D03*
%TD*%
D21*
%TO.C,C1*%
X202750000Y-86750000D03*
X200675000Y-86750000D03*
%TD*%
D22*
%TO.C,U4*%
X204775000Y-94150000D03*
X204775000Y-93200000D03*
X204775000Y-92250000D03*
X202500000Y-92250000D03*
X202500000Y-93200000D03*
X202500000Y-94150000D03*
%TD*%
D10*
%TO.C,D3*%
X186050000Y-72250000D03*
X183950000Y-72250000D03*
%TD*%
D11*
%TO.C,R2*%
X190750000Y-94000000D03*
X192750000Y-94000000D03*
%TD*%
D13*
%TO.C,C10*%
X197000000Y-90462500D03*
X197000000Y-92537500D03*
%TD*%
D18*
%TO.C,SW3*%
X143000000Y-65850000D03*
D19*
X138000000Y-71000000D03*
D20*
X138000000Y-76900000D03*
X133000000Y-74800000D03*
%TD*%
D10*
%TO.C,D14*%
X186100000Y-106000000D03*
X184000000Y-106000000D03*
%TD*%
D18*
%TO.C,SW9*%
X125000000Y-82850000D03*
D19*
X120000000Y-88000000D03*
D20*
X120000000Y-93900000D03*
X115000000Y-91800000D03*
%TD*%
D18*
%TO.C,SW12*%
X161000000Y-99850000D03*
D19*
X156000000Y-105000000D03*
D20*
X156000000Y-110900000D03*
X151000000Y-108800000D03*
%TD*%
D10*
%TO.C,D7*%
X186000000Y-94750000D03*
X183900000Y-94750000D03*
%TD*%
%TO.C,D18*%
X186100000Y-121000000D03*
X184000000Y-121000000D03*
%TD*%
D18*
%TO.C,SW7*%
X161000000Y-82850000D03*
D19*
X156000000Y-88000000D03*
D20*
X156000000Y-93900000D03*
X151000000Y-91800000D03*
%TD*%
D23*
%TO.C,R3*%
X195000000Y-96500000D03*
X193000000Y-96500000D03*
%TD*%
D18*
%TO.C,SW16*%
X179000000Y-116850000D03*
D19*
X174000000Y-122000000D03*
D20*
X174000000Y-127900000D03*
X169000000Y-125800000D03*
%TD*%
D18*
%TO.C,SW10*%
X107000000Y-82850000D03*
D19*
X102000000Y-88000000D03*
D20*
X102000000Y-93900000D03*
X97000000Y-91800000D03*
%TD*%
D24*
%TO.C,J1*%
X223500000Y-65850000D03*
X216500000Y-65850000D03*
D25*
X223500000Y-67100000D03*
X222500000Y-67100000D03*
D26*
X221250000Y-67100000D03*
X220250000Y-67100000D03*
X219750000Y-67100000D03*
X218750000Y-67100000D03*
D25*
X217500000Y-67100000D03*
X216500000Y-67100000D03*
X216500000Y-67100000D03*
X217500000Y-67100000D03*
D26*
X218250000Y-67100000D03*
X219250000Y-67100000D03*
X220750000Y-67100000D03*
X221750000Y-67100000D03*
D25*
X222500000Y-67100000D03*
X223500000Y-67100000D03*
D27*
X225920000Y-62000000D03*
D28*
X224650000Y-66320000D03*
X215350000Y-66320000D03*
D27*
X214080000Y-62000000D03*
%TD*%
D10*
%TO.C,D16*%
X186100000Y-128500000D03*
X184000000Y-128500000D03*
%TD*%
D18*
%TO.C,SW6*%
X179000000Y-82850000D03*
D19*
X174000000Y-88000000D03*
D20*
X174000000Y-93900000D03*
X169000000Y-91800000D03*
%TD*%
D29*
%TO.C,J3*%
X189750000Y-114050000D03*
X189750000Y-113050000D03*
D30*
X193625000Y-115350000D03*
X193625000Y-111750000D03*
%TD*%
D10*
%TO.C,D17*%
X186050000Y-124750000D03*
X183950000Y-124750000D03*
%TD*%
D21*
%TO.C,C3*%
X225787500Y-75250000D03*
X223712500Y-75250000D03*
%TD*%
D10*
%TO.C,D4*%
X186000000Y-68500000D03*
X183900000Y-68500000D03*
%TD*%
D18*
%TO.C,SW11*%
X179000000Y-99850000D03*
D19*
X174000000Y-105000000D03*
D20*
X174000000Y-110900000D03*
X169000000Y-108800000D03*
%TD*%
D31*
%TO.C,C5*%
X197212500Y-103000000D03*
X199287500Y-103000000D03*
%TD*%
D21*
%TO.C,C2*%
X225787500Y-71750000D03*
X223712500Y-71750000D03*
%TD*%
D18*
%TO.C,SW4*%
X125000000Y-65850000D03*
D19*
X120000000Y-71000000D03*
D20*
X120000000Y-76900000D03*
X115000000Y-74800000D03*
%TD*%
D18*
%TO.C,SW17*%
X161000000Y-116850000D03*
D19*
X156000000Y-122000000D03*
D20*
X156000000Y-127900000D03*
X151000000Y-125800000D03*
%TD*%
D11*
%TO.C,R6*%
X216000000Y-71750000D03*
X218000000Y-71750000D03*
%TD*%
D10*
%TO.C,D12*%
X186150000Y-113500000D03*
X184050000Y-113500000D03*
%TD*%
D32*
%TO.C,SW19*%
X209850000Y-87500000D03*
X205650000Y-87500000D03*
%TD*%
D10*
%TO.C,D10*%
X186050000Y-83500000D03*
X183950000Y-83500000D03*
%TD*%
%TO.C,D9*%
X186050000Y-87250000D03*
X183950000Y-87250000D03*
%TD*%
D18*
%TO.C,SW1*%
X179000000Y-65850000D03*
D19*
X174000000Y-71000000D03*
D20*
X174000000Y-76900000D03*
X169000000Y-74800000D03*
%TD*%
D11*
%TO.C,R5*%
X216000000Y-75250000D03*
X218000000Y-75250000D03*
%TD*%
D18*
%TO.C,SW13*%
X143000000Y-99850000D03*
D19*
X138000000Y-105000000D03*
D20*
X138000000Y-110900000D03*
X133000000Y-108800000D03*
%TD*%
D18*
%TO.C,SW2*%
X161000000Y-65850000D03*
D19*
X156000000Y-71000000D03*
D20*
X156000000Y-76900000D03*
X151000000Y-74800000D03*
%TD*%
D18*
%TO.C,SW5*%
X107000000Y-65850000D03*
D19*
X102000000Y-71000000D03*
D20*
X102000000Y-76900000D03*
X97000000Y-74800000D03*
%TD*%
D31*
%TO.C,C4*%
X197462500Y-96500000D03*
X199537500Y-96500000D03*
%TD*%
D10*
%TO.C,D2*%
X186050000Y-76000000D03*
X183950000Y-76000000D03*
%TD*%
D13*
%TO.C,C7*%
X197000000Y-85712500D03*
X197000000Y-87787500D03*
%TD*%
D10*
%TO.C,D13*%
X186100000Y-109750000D03*
X184000000Y-109750000D03*
%TD*%
D18*
%TO.C,SW14*%
X125000000Y-99850000D03*
D19*
X120000000Y-105000000D03*
D20*
X120000000Y-110900000D03*
X115000000Y-108800000D03*
%TD*%
D33*
%TO.C,C6*%
X191250000Y-85787500D03*
X191250000Y-83712500D03*
%TD*%
D34*
%TO.C,U2*%
X193450000Y-88000000D03*
X192500000Y-88000000D03*
X191550000Y-88000000D03*
X191550000Y-90275000D03*
X193450000Y-90275000D03*
%TD*%
D18*
%TO.C,SW15*%
X107000000Y-99850000D03*
D19*
X102000000Y-105000000D03*
D20*
X102000000Y-110900000D03*
X97000000Y-108800000D03*
%TD*%
D13*
%TO.C,C9*%
X190250000Y-79250000D03*
X190250000Y-81325000D03*
%TD*%
D10*
%TO.C,D15*%
X186150000Y-102250000D03*
X184050000Y-102250000D03*
%TD*%
%TO.C,D1*%
X186050000Y-79750000D03*
X183950000Y-79750000D03*
%TD*%
D29*
%TO.C,J2*%
X189750000Y-107750000D03*
X189750000Y-106750000D03*
D30*
X193625000Y-109050000D03*
X193625000Y-105450000D03*
%TD*%
D35*
%TO.C,J4*%
X211050000Y-93875000D03*
X212050000Y-93875000D03*
X213050000Y-93875000D03*
D36*
X209750000Y-97750000D03*
X214350000Y-97750000D03*
%TD*%
D37*
%TO.C,D19*%
X190750000Y-97157500D03*
X190750000Y-96342500D03*
%TD*%
D38*
%TO.C,U3*%
X190862500Y-100050000D03*
X190862500Y-101000000D03*
X190862500Y-101950000D03*
X193137500Y-101950000D03*
X193137500Y-100050000D03*
%TD*%
D10*
%TO.C,D6*%
X186000000Y-98500000D03*
X183900000Y-98500000D03*
%TD*%
%TO.C,D8*%
X186050000Y-91000000D03*
X183950000Y-91000000D03*
%TD*%
M02*
