%TF.GenerationSoftware,KiCad,Pcbnew,10.0.2*%
%TF.CreationDate,2026-06-03T16:23:48+02:00*%
%TF.ProjectId,test,74657374-2e6b-4696-9361-645f70636258,rev?*%
%TF.SameCoordinates,Original*%
%TF.FileFunction,Copper,L2,Bot*%
%TF.FilePolarity,Positive*%
%FSLAX46Y46*%
G04 Gerber Fmt 4.6, Leading zero omitted, Abs format (unit mm)*
G04 Created by KiCad (PCBNEW 10.0.2) date 2026-06-03 16:23:48*
%MOMM*%
%LPD*%
G01*
G04 APERTURE LIST*
G04 Aperture macros list*
%AMRoundRect*
0 Rectangle with rounded corners*
0 $1 Rounding radius*
0 $2 $3 $4 $5 $6 $7 $8 $9 X,Y pos of 4 corners*
0 Add a 4 corners polygon primitive as box body*
4,1,4,$2,$3,$4,$5,$6,$7,$8,$9,$2,$3,0*
0 Add four circle primitives for the rounded corners*
1,1,$1+$1,$2,$3*
1,1,$1+$1,$4,$5*
1,1,$1+$1,$6,$7*
1,1,$1+$1,$8,$9*
0 Add four rect primitives between the rounded corners*
20,1,$1+$1,$2,$3,$4,$5,0*
20,1,$1+$1,$4,$5,$6,$7,0*
20,1,$1+$1,$6,$7,$8,$9,0*
20,1,$1+$1,$8,$9,$2,$3,0*%
G04 Aperture macros list end*
%TA.AperFunction,ComponentPad*%
%ADD10C,2.600000*%
%TD*%
%TA.AperFunction,SMDPad,CuDef*%
%ADD11RoundRect,0.250000X1.675000X1.000000X-1.675000X1.000000X-1.675000X-1.000000X1.675000X-1.000000X0*%
%TD*%
%TA.AperFunction,ComponentPad*%
%ADD12C,3.600000*%
%TD*%
%TA.AperFunction,ComponentPad*%
%ADD13O,0.900000X1.800000*%
%TD*%
%TA.AperFunction,ComponentPad*%
%ADD14O,0.900000X1.500000*%
%TD*%
%TA.AperFunction,ViaPad*%
%ADD15C,0.600000*%
%TD*%
%TA.AperFunction,Conductor*%
%ADD16C,0.200000*%
%TD*%
G04 APERTURE END LIST*
D10*
%TO.P,SW18,*%
%TO.N,*%
X143000000Y-116850000D03*
D11*
%TO.P,SW18,1,1_1*%
%TO.N,Net-(D18-A)*%
X140850000Y-128000000D03*
D12*
X138000000Y-127900000D03*
%TO.P,SW18,2,2_2*%
%TO.N,col_3*%
X133000000Y-125800000D03*
D11*
X130150000Y-125800000D03*
%TD*%
D10*
%TO.P,SW8,*%
%TO.N,*%
X143000000Y-82850000D03*
D11*
%TO.P,SW8,1,1_1*%
%TO.N,Net-(D8-A)*%
X140850000Y-94000000D03*
D12*
X138000000Y-93900000D03*
%TO.P,SW8,2,2_2*%
%TO.N,col_3*%
X133000000Y-91800000D03*
D11*
X130150000Y-91800000D03*
%TD*%
D10*
%TO.P,SW3,*%
%TO.N,*%
X143000000Y-65850000D03*
D11*
%TO.P,SW3,1,1_1*%
%TO.N,Net-(D3-A)*%
X140850000Y-77000000D03*
D12*
X138000000Y-76900000D03*
%TO.P,SW3,2,2_2*%
%TO.N,col_3*%
X133000000Y-74800000D03*
D11*
X130150000Y-74800000D03*
%TD*%
D10*
%TO.P,SW9,*%
%TO.N,*%
X125000000Y-82850000D03*
D11*
%TO.P,SW9,1,1_1*%
%TO.N,Net-(D9-A)*%
X122850000Y-94000000D03*
D12*
X120000000Y-93900000D03*
%TO.P,SW9,2,2_2*%
%TO.N,col_4*%
X115000000Y-91800000D03*
D11*
X112150000Y-91800000D03*
%TD*%
D10*
%TO.P,SW12,*%
%TO.N,*%
X161000000Y-99850000D03*
D11*
%TO.P,SW12,1,1_1*%
%TO.N,Net-(D12-A)*%
X158850000Y-111000000D03*
D12*
X156000000Y-110900000D03*
%TO.P,SW12,2,2_2*%
%TO.N,col_2*%
X151000000Y-108800000D03*
D11*
X148150000Y-108800000D03*
%TD*%
D10*
%TO.P,SW7,*%
%TO.N,*%
X161000000Y-82850000D03*
D11*
%TO.P,SW7,1,1_1*%
%TO.N,Net-(D7-A)*%
X158850000Y-94000000D03*
D12*
X156000000Y-93900000D03*
%TO.P,SW7,2,2_2*%
%TO.N,col_2*%
X151000000Y-91800000D03*
D11*
X148150000Y-91800000D03*
%TD*%
D10*
%TO.P,SW16,*%
%TO.N,*%
X179000000Y-116850000D03*
D11*
%TO.P,SW16,1,1_1*%
%TO.N,Net-(D16-A)*%
X176850000Y-128000000D03*
D12*
X174000000Y-127900000D03*
%TO.P,SW16,2,2_2*%
%TO.N,col_1*%
X169000000Y-125800000D03*
D11*
X166150000Y-125800000D03*
%TD*%
D10*
%TO.P,SW10,*%
%TO.N,*%
X107000000Y-82850000D03*
D11*
%TO.P,SW10,1,1_1*%
%TO.N,Net-(D10-A)*%
X104850000Y-94000000D03*
D12*
X102000000Y-93900000D03*
%TO.P,SW10,2,2_2*%
%TO.N,col_5*%
X97000000Y-91800000D03*
D11*
X94150000Y-91800000D03*
%TD*%
D13*
%TO.P,J1,SH,SHIELD_SH*%
%TO.N,GND*%
X225920000Y-62000000D03*
D14*
X224650000Y-66320000D03*
X215350000Y-66320000D03*
D13*
X214080000Y-62000000D03*
%TD*%
D10*
%TO.P,SW6,*%
%TO.N,*%
X179000000Y-82850000D03*
D11*
%TO.P,SW6,1,1_1*%
%TO.N,Net-(D6-A)*%
X176850000Y-94000000D03*
D12*
X174000000Y-93900000D03*
%TO.P,SW6,2,2_2*%
%TO.N,col_1*%
X169000000Y-91800000D03*
D11*
X166150000Y-91800000D03*
%TD*%
D10*
%TO.P,SW11,*%
%TO.N,*%
X179000000Y-99850000D03*
D11*
%TO.P,SW11,1,1_1*%
%TO.N,Net-(D11-A)*%
X176850000Y-111000000D03*
D12*
X174000000Y-110900000D03*
%TO.P,SW11,2,2_2*%
%TO.N,col_1*%
X169000000Y-108800000D03*
D11*
X166150000Y-108800000D03*
%TD*%
D10*
%TO.P,SW4,*%
%TO.N,*%
X125000000Y-65850000D03*
D11*
%TO.P,SW4,1,1_1*%
%TO.N,Net-(D4-A)*%
X122850000Y-77000000D03*
D12*
X120000000Y-76900000D03*
%TO.P,SW4,2,2_2*%
%TO.N,col_4*%
X115000000Y-74800000D03*
D11*
X112150000Y-74800000D03*
%TD*%
D10*
%TO.P,SW17,*%
%TO.N,*%
X161000000Y-116850000D03*
D11*
%TO.P,SW17,1,1_1*%
%TO.N,Net-(D17-A)*%
X158850000Y-128000000D03*
D12*
X156000000Y-127900000D03*
%TO.P,SW17,2,2_2*%
%TO.N,col_2*%
X151000000Y-125800000D03*
D11*
X148150000Y-125800000D03*
%TD*%
D10*
%TO.P,SW1,*%
%TO.N,*%
X179000000Y-65850000D03*
D11*
%TO.P,SW1,1,1_1*%
%TO.N,Net-(D1-A)*%
X176850000Y-77000000D03*
D12*
X174000000Y-76900000D03*
%TO.P,SW1,2,2_2*%
%TO.N,col_1*%
X169000000Y-74800000D03*
D11*
X166150000Y-74800000D03*
%TD*%
D10*
%TO.P,SW13,*%
%TO.N,*%
X143000000Y-99850000D03*
D11*
%TO.P,SW13,1,1_1*%
%TO.N,Net-(D13-A)*%
X140850000Y-111000000D03*
D12*
X138000000Y-110900000D03*
%TO.P,SW13,2,2_2*%
%TO.N,col_3*%
X133000000Y-108800000D03*
D11*
X130150000Y-108800000D03*
%TD*%
D10*
%TO.P,SW2,*%
%TO.N,*%
X161000000Y-65850000D03*
D11*
%TO.P,SW2,1,1_1*%
%TO.N,Net-(D2-A)*%
X158850000Y-77000000D03*
D12*
X156000000Y-76900000D03*
%TO.P,SW2,2,2_2*%
%TO.N,col_2*%
X151000000Y-74800000D03*
D11*
X148150000Y-74800000D03*
%TD*%
D10*
%TO.P,SW5,*%
%TO.N,*%
X107000000Y-65850000D03*
D11*
%TO.P,SW5,1,1_1*%
%TO.N,Net-(D5-A)*%
X104850000Y-77000000D03*
D12*
X102000000Y-76900000D03*
%TO.P,SW5,2,2_2*%
%TO.N,col_5*%
X97000000Y-74800000D03*
D11*
X94150000Y-74800000D03*
%TD*%
D10*
%TO.P,SW14,*%
%TO.N,*%
X125000000Y-99850000D03*
D11*
%TO.P,SW14,1,1_1*%
%TO.N,Net-(D14-A)*%
X122850000Y-111000000D03*
D12*
X120000000Y-110900000D03*
%TO.P,SW14,2,2_2*%
%TO.N,col_4*%
X115000000Y-108800000D03*
D11*
X112150000Y-108800000D03*
%TD*%
D10*
%TO.P,SW15,*%
%TO.N,*%
X107000000Y-99850000D03*
D11*
%TO.P,SW15,1,1_1*%
%TO.N,Net-(D15-A)*%
X104850000Y-111000000D03*
D12*
X102000000Y-110900000D03*
%TO.P,SW15,2,2_2*%
%TO.N,col_5*%
X97000000Y-108800000D03*
D11*
X94150000Y-108800000D03*
%TD*%
D15*
%TO.N,VSYS*%
X193450000Y-84662500D03*
X202750000Y-101500000D03*
%TO.N,VBUS*%
X202250000Y-98250000D03*
%TO.N,3v3*%
X192750000Y-80250000D03*
X190250000Y-75000000D03*
%TO.N,col_3*%
X199500000Y-65250000D03*
%TO.N,D+ (pre-ESD)*%
X218949997Y-70500000D03*
X220550003Y-70500000D03*
X217000000Y-91350000D03*
%TO.N,D- (pre-ESD)*%
X219750000Y-70500000D03*
X218500000Y-90750000D03*
X221350006Y-70500000D03*
%TO.N,D- (post-ESD)*%
X199125000Y-88875000D03*
X199632500Y-82750000D03*
%TO.N,VBUS*%
X220500000Y-75250000D03*
X215000000Y-72750000D03*
X200250000Y-84250000D03*
X200500000Y-93000000D03*
%TO.N,D+ (post-ESD)*%
X202500000Y-96250000D03*
X204250000Y-85250000D03*
%TO.N,col_4*%
X200750000Y-65250000D03*
%TO.N,col_2*%
X198250000Y-65250000D03*
%TO.N,col_1*%
X197000000Y-65250000D03*
%TO.N,col_5*%
X202250000Y-65250000D03*
%TO.N,SWDIO*%
X211750000Y-89500000D03*
X213250000Y-92000000D03*
%TO.N,SWDCLK*%
X211000000Y-92000000D03*
X206000000Y-84250000D03*
%TD*%
%TO.N,VSYS*%
D16*
X194750000Y-93500000D02*
X194750000Y-85500000D01*
X202750000Y-101500000D02*
X194750000Y-93500000D01*
X194750000Y-85500000D02*
X193912500Y-84662500D01*
X193912500Y-84662500D02*
X193450000Y-84662500D01*
%TO.N,VBUS*%
X202250000Y-98250000D02*
X200500000Y-96500000D01*
X200500000Y-96500000D02*
X200500000Y-93000000D01*
%TO.N,3v3*%
X190250000Y-75000000D02*
X191750000Y-76500000D01*
X191750000Y-76500000D02*
X191750000Y-79250000D01*
X191750000Y-79250000D02*
X192750000Y-80250000D01*
%TO.N,col_3*%
X141700000Y-62800000D02*
X197050000Y-62800000D01*
X130150000Y-74800000D02*
X130150000Y-92800000D01*
X197050000Y-62800000D02*
X199500000Y-65250000D01*
X130150000Y-108800000D02*
X130150000Y-125800000D01*
X133000000Y-71500000D02*
X141700000Y-62800000D01*
X130150000Y-92800000D02*
X130150000Y-108800000D01*
X133000000Y-74800000D02*
X133000000Y-71500000D01*
%TO.N,D+ (pre-ESD)*%
X221100000Y-74034314D02*
X220550003Y-73484317D01*
X218949997Y-70548526D02*
X219501471Y-71100000D01*
X221100000Y-87250000D02*
X221100000Y-74034314D01*
X217000000Y-91350000D02*
X221100000Y-87250000D01*
X218949997Y-70500000D02*
X218949997Y-70548526D01*
X220550003Y-70548526D02*
X220550003Y-70500000D01*
X220550003Y-73484317D02*
X220550003Y-70500000D01*
X219501471Y-71100000D02*
X219998529Y-71100000D01*
X219998529Y-71100000D02*
X220550003Y-70548526D01*
%TO.N,D- (pre-ESD)*%
X220648532Y-69750000D02*
X220451474Y-69750000D01*
X222500000Y-71649994D02*
X221350006Y-70500000D01*
X220451474Y-69750000D02*
X219750000Y-70451474D01*
X222500000Y-86750000D02*
X222500000Y-71649994D01*
X219750000Y-70451474D02*
X219750000Y-70500000D01*
X218500000Y-90750000D02*
X222500000Y-86750000D01*
X221350006Y-70500000D02*
X221350006Y-70451474D01*
X221350006Y-70451474D02*
X220648532Y-69750000D01*
%TO.N,D- (post-ESD)*%
X199000000Y-84250000D02*
X199632500Y-83617500D01*
X199125000Y-88875000D02*
X199000000Y-88750000D01*
X199000000Y-88750000D02*
X199000000Y-84250000D01*
X199632500Y-83617500D02*
X199632500Y-82750000D01*
%TO.N,VBUS*%
X199750000Y-84750000D02*
X199750000Y-92250000D01*
X214000000Y-83000000D02*
X220500000Y-76500000D01*
X200250000Y-84250000D02*
X199750000Y-84750000D01*
X220500000Y-74000000D02*
X219750000Y-73250000D01*
X199750000Y-92250000D02*
X200500000Y-93000000D01*
X200250000Y-84250000D02*
X201500000Y-83000000D01*
X219750000Y-73250000D02*
X215500000Y-73250000D01*
X215500000Y-73250000D02*
X215000000Y-72750000D01*
X201500000Y-83000000D02*
X214000000Y-83000000D01*
X220500000Y-75250000D02*
X220500000Y-74000000D01*
X220500000Y-76500000D02*
X220500000Y-75250000D01*
%TO.N,D+ (post-ESD)*%
X206750000Y-95500000D02*
X205500000Y-96750000D01*
X206750000Y-92000000D02*
X206750000Y-95500000D01*
X203000000Y-96750000D02*
X202500000Y-96250000D01*
X205500000Y-96750000D02*
X203000000Y-96750000D01*
X204250000Y-89500000D02*
X206750000Y-92000000D01*
X204250000Y-85250000D02*
X204250000Y-89500000D01*
%TO.N,col_4*%
X197900000Y-62400000D02*
X200750000Y-65250000D01*
X112150000Y-74800000D02*
X112150000Y-91800000D01*
X124534136Y-62400000D02*
X197900000Y-62400000D01*
X115000000Y-71934136D02*
X124534136Y-62400000D01*
X115000000Y-74800000D02*
X115000000Y-71934136D01*
X112150000Y-108800000D02*
X112150000Y-91800000D01*
%TO.N,col_2*%
X148150000Y-108800000D02*
X148150000Y-125800000D01*
X176934314Y-63250000D02*
X196250000Y-63250000D01*
X151000000Y-74800000D02*
X151000000Y-71934136D01*
X159434136Y-63500000D02*
X176684314Y-63500000D01*
X148150000Y-108800000D02*
X148150000Y-92800000D01*
X196250000Y-63250000D02*
X198250000Y-65250000D01*
X151000000Y-71934136D02*
X159434136Y-63500000D01*
X176684314Y-63500000D02*
X176934314Y-63250000D01*
X148150000Y-74800000D02*
X148150000Y-92800000D01*
%TO.N,col_1*%
X166150000Y-74800000D02*
X166150000Y-92800000D01*
X169000000Y-74800000D02*
X169000000Y-71750000D01*
X166150000Y-108800000D02*
X166150000Y-125800000D01*
X169000000Y-71750000D02*
X177000000Y-63750000D01*
X195500000Y-63750000D02*
X197000000Y-65250000D01*
X177000000Y-63750000D02*
X195500000Y-63750000D01*
X166150000Y-92800000D02*
X166150000Y-108800000D01*
%TO.N,col_5*%
X97000000Y-71934136D02*
X106934136Y-62000000D01*
X199000000Y-62000000D02*
X202250000Y-65250000D01*
X97000000Y-74800000D02*
X97000000Y-71934136D01*
X94150000Y-74800000D02*
X94150000Y-91800000D01*
X106934136Y-62000000D02*
X199000000Y-62000000D01*
X94150000Y-91800000D02*
X94150000Y-108800000D01*
%TO.N,SWDIO*%
X213250000Y-91000000D02*
X213250000Y-92000000D01*
X211750000Y-89500000D02*
X213250000Y-91000000D01*
%TO.N,SWDCLK*%
X211000000Y-89250000D02*
X206000000Y-84250000D01*
X211000000Y-92000000D02*
X211000000Y-89250000D01*
%TD*%
M02*
