%TF.GenerationSoftware,KiCad,Pcbnew,10.0.2*%
%TF.CreationDate,2026-06-03T16:23:48+02:00*%
%TF.ProjectId,test,74657374-2e6b-4696-9361-645f70636258,rev?*%
%TF.SameCoordinates,Original*%
%TF.FileFunction,Soldermask,Bot*%
%TF.FilePolarity,Negative*%
%FSLAX46Y46*%
G04 Gerber Fmt 4.6, Leading zero omitted, Abs format (unit mm)*
G04 Created by KiCad (PCBNEW 10.0.2) date 2026-06-03 16:23:48*
%MOMM*%
%LPD*%
G01*
G04 APERTURE LIST*
G04 Aperture macros list*
%AMRoundRect*
0 Rectangle with rounded corners*
0 $1 Rounding radius*
0 $2 $3 $4 $5 $6 $7 $8 $9 X,Y pos of 4 corners*
0 Add a 4 corners polygon primitive as box body*
4,1,4,$2,$3,$4,$5,$6,$7,$8,$9,$2,$3,0*
0 Add four circle primitives for the rounded corners*
1,1,$1+$1,$2,$3*
1,1,$1+$1,$4,$5*
1,1,$1+$1,$6,$7*
1,1,$1+$1,$8,$9*
0 Add four rect primitives between the rounded corners*
20,1,$1+$1,$2,$3,$4,$5,0*
20,1,$1+$1,$4,$5,$6,$7,0*
20,1,$1+$1,$6,$7,$8,$9,0*
20,1,$1+$1,$8,$9,$2,$3,0*%
G04 Aperture macros list end*
%ADD10C,2.600000*%
%ADD11RoundRect,0.250000X1.025000X1.000000X-1.025000X1.000000X-1.025000X-1.000000X1.025000X-1.000000X0*%
%ADD12C,5.050000*%
%ADD13C,3.600000*%
%ADD14C,0.600000*%
%ADD15O,0.900000X1.800000*%
%ADD16O,0.900000X1.500000*%
G04 APERTURE END LIST*
D10*
%TO.C,SW18*%
X143000000Y-116850000D03*
D11*
X141500000Y-128000000D03*
D12*
X138000000Y-122000000D03*
D11*
X129500000Y-125800000D03*
D13*
X138000000Y-127900000D03*
X133000000Y-125800000D03*
%TD*%
D10*
%TO.C,SW8*%
X143000000Y-82850000D03*
D11*
X141500000Y-94000000D03*
D12*
X138000000Y-88000000D03*
D11*
X129500000Y-91800000D03*
D13*
X138000000Y-93900000D03*
X133000000Y-91800000D03*
%TD*%
D10*
%TO.C,SW3*%
X143000000Y-65850000D03*
D11*
X141500000Y-77000000D03*
D12*
X138000000Y-71000000D03*
D11*
X129500000Y-74800000D03*
D13*
X138000000Y-76900000D03*
X133000000Y-74800000D03*
%TD*%
D10*
%TO.C,SW9*%
X125000000Y-82850000D03*
D11*
X123500000Y-94000000D03*
D12*
X120000000Y-88000000D03*
D11*
X111500000Y-91800000D03*
D13*
X120000000Y-93900000D03*
X115000000Y-91800000D03*
%TD*%
D10*
%TO.C,SW12*%
X161000000Y-99850000D03*
D11*
X159500000Y-111000000D03*
D12*
X156000000Y-105000000D03*
D11*
X147500000Y-108800000D03*
D13*
X156000000Y-110900000D03*
X151000000Y-108800000D03*
%TD*%
D10*
%TO.C,SW7*%
X161000000Y-82850000D03*
D11*
X159500000Y-94000000D03*
D12*
X156000000Y-88000000D03*
D11*
X147500000Y-91800000D03*
D13*
X156000000Y-93900000D03*
X151000000Y-91800000D03*
%TD*%
D10*
%TO.C,SW16*%
X179000000Y-116850000D03*
D11*
X177500000Y-128000000D03*
D12*
X174000000Y-122000000D03*
D11*
X165500000Y-125800000D03*
D13*
X174000000Y-127900000D03*
X169000000Y-125800000D03*
%TD*%
D10*
%TO.C,SW10*%
X107000000Y-82850000D03*
D11*
X105500000Y-94000000D03*
D12*
X102000000Y-88000000D03*
D11*
X93500000Y-91800000D03*
D13*
X102000000Y-93900000D03*
X97000000Y-91800000D03*
%TD*%
D14*
%TO.C,J1*%
X223500000Y-65850000D03*
X216500000Y-65850000D03*
D15*
X225920000Y-62000000D03*
D16*
X224650000Y-66320000D03*
X215350000Y-66320000D03*
D15*
X214080000Y-62000000D03*
%TD*%
D10*
%TO.C,SW6*%
X179000000Y-82850000D03*
D11*
X177500000Y-94000000D03*
D12*
X174000000Y-88000000D03*
D11*
X165500000Y-91800000D03*
D13*
X174000000Y-93900000D03*
X169000000Y-91800000D03*
%TD*%
D10*
%TO.C,SW11*%
X179000000Y-99850000D03*
D11*
X177500000Y-111000000D03*
D12*
X174000000Y-105000000D03*
D11*
X165500000Y-108800000D03*
D13*
X174000000Y-110900000D03*
X169000000Y-108800000D03*
%TD*%
D10*
%TO.C,SW4*%
X125000000Y-65850000D03*
D11*
X123500000Y-77000000D03*
D12*
X120000000Y-71000000D03*
D11*
X111500000Y-74800000D03*
D13*
X120000000Y-76900000D03*
X115000000Y-74800000D03*
%TD*%
D10*
%TO.C,SW17*%
X161000000Y-116850000D03*
D11*
X159500000Y-128000000D03*
D12*
X156000000Y-122000000D03*
D11*
X147500000Y-125800000D03*
D13*
X156000000Y-127900000D03*
X151000000Y-125800000D03*
%TD*%
D10*
%TO.C,SW1*%
X179000000Y-65850000D03*
D11*
X177500000Y-77000000D03*
D12*
X174000000Y-71000000D03*
D11*
X165500000Y-74800000D03*
D13*
X174000000Y-76900000D03*
X169000000Y-74800000D03*
%TD*%
D10*
%TO.C,SW13*%
X143000000Y-99850000D03*
D11*
X141500000Y-111000000D03*
D12*
X138000000Y-105000000D03*
D11*
X129500000Y-108800000D03*
D13*
X138000000Y-110900000D03*
X133000000Y-108800000D03*
%TD*%
D10*
%TO.C,SW2*%
X161000000Y-65850000D03*
D11*
X159500000Y-77000000D03*
D12*
X156000000Y-71000000D03*
D11*
X147500000Y-74800000D03*
D13*
X156000000Y-76900000D03*
X151000000Y-74800000D03*
%TD*%
D10*
%TO.C,SW5*%
X107000000Y-65850000D03*
D11*
X105500000Y-77000000D03*
D12*
X102000000Y-71000000D03*
D11*
X93500000Y-74800000D03*
D13*
X102000000Y-76900000D03*
X97000000Y-74800000D03*
%TD*%
D10*
%TO.C,SW14*%
X125000000Y-99850000D03*
D11*
X123500000Y-111000000D03*
D12*
X120000000Y-105000000D03*
D11*
X111500000Y-108800000D03*
D13*
X120000000Y-110900000D03*
X115000000Y-108800000D03*
%TD*%
D10*
%TO.C,SW15*%
X107000000Y-99850000D03*
D11*
X105500000Y-111000000D03*
D12*
X102000000Y-105000000D03*
D11*
X93500000Y-108800000D03*
D13*
X102000000Y-110900000D03*
X97000000Y-108800000D03*
%TD*%
M02*
